<mxfile host="app.diagrams.net" agent="Mozilla/5.0 (Windows NT 10.0; Win64; x64) AppleWebKit/537.36 (KHTML, like Gecko) Chrome/135.0.0.0 Safari/537.36" version="26.2.14">
  <diagram id="wFE0QG_FPsp0jaGvCLVb" name="Page-1">
    <mxGraphModel dx="1892" dy="579" grid="1" gridSize="10" guides="1" tooltips="1" connect="1" arrows="1" fold="1" page="1" pageScale="1" pageWidth="850" pageHeight="1100" math="0" shadow="0">
      <root>
        <mxCell id="0" />
        <mxCell id="1" parent="0" />
        <mxCell id="wKFJhELgr0NoA7eS5oiP-12" style="edgeStyle=orthogonalEdgeStyle;rounded=0;orthogonalLoop=1;jettySize=auto;html=1;exitX=0;exitY=0.5;exitDx=0;exitDy=0;entryX=0;entryY=0.5;entryDx=0;entryDy=0;endArrow=none;startFill=0;" edge="1" parent="1" source="wKFJhELgr0NoA7eS5oiP-2" target="wKFJhELgr0NoA7eS5oiP-5">
          <mxGeometry relative="1" as="geometry" />
        </mxCell>
        <mxCell id="wKFJhELgr0NoA7eS5oiP-13" style="edgeStyle=orthogonalEdgeStyle;shape=connector;rounded=0;orthogonalLoop=1;jettySize=auto;html=1;exitX=0;exitY=0.5;exitDx=0;exitDy=0;entryX=0;entryY=0.5;entryDx=0;entryDy=0;strokeColor=default;align=center;verticalAlign=middle;fontFamily=Helvetica;fontSize=11;fontColor=default;labelBackgroundColor=default;startFill=0;endArrow=none;" edge="1" parent="1" source="wKFJhELgr0NoA7eS5oiP-2" target="wKFJhELgr0NoA7eS5oiP-8">
          <mxGeometry relative="1" as="geometry" />
        </mxCell>
        <mxCell id="wKFJhELgr0NoA7eS5oiP-14" style="edgeStyle=orthogonalEdgeStyle;shape=connector;rounded=0;orthogonalLoop=1;jettySize=auto;html=1;exitX=0;exitY=0.5;exitDx=0;exitDy=0;entryX=0;entryY=0.5;entryDx=0;entryDy=0;strokeColor=default;align=center;verticalAlign=middle;fontFamily=Helvetica;fontSize=11;fontColor=default;labelBackgroundColor=default;startFill=0;endArrow=none;" edge="1" parent="1" source="wKFJhELgr0NoA7eS5oiP-2" target="wKFJhELgr0NoA7eS5oiP-9">
          <mxGeometry relative="1" as="geometry" />
        </mxCell>
        <mxCell id="wKFJhELgr0NoA7eS5oiP-15" style="edgeStyle=orthogonalEdgeStyle;shape=connector;rounded=0;orthogonalLoop=1;jettySize=auto;html=1;exitX=0;exitY=0.5;exitDx=0;exitDy=0;entryX=0;entryY=0.5;entryDx=0;entryDy=0;strokeColor=default;align=center;verticalAlign=middle;fontFamily=Helvetica;fontSize=11;fontColor=default;labelBackgroundColor=default;startFill=0;endArrow=none;" edge="1" parent="1" source="wKFJhELgr0NoA7eS5oiP-2" target="wKFJhELgr0NoA7eS5oiP-10">
          <mxGeometry relative="1" as="geometry" />
        </mxCell>
        <mxCell id="wKFJhELgr0NoA7eS5oiP-16" style="edgeStyle=orthogonalEdgeStyle;shape=connector;rounded=0;orthogonalLoop=1;jettySize=auto;html=1;exitX=0;exitY=0.5;exitDx=0;exitDy=0;entryX=0;entryY=0.5;entryDx=0;entryDy=0;strokeColor=default;align=center;verticalAlign=middle;fontFamily=Helvetica;fontSize=11;fontColor=default;labelBackgroundColor=default;startFill=0;endArrow=none;" edge="1" parent="1" source="wKFJhELgr0NoA7eS5oiP-2" target="wKFJhELgr0NoA7eS5oiP-11">
          <mxGeometry relative="1" as="geometry" />
        </mxCell>
        <mxCell id="wKFJhELgr0NoA7eS5oiP-2" value="Cliente" style="whiteSpace=wrap;html=1;align=center;" vertex="1" parent="1">
          <mxGeometry x="10" y="200" width="100" height="40" as="geometry" />
        </mxCell>
        <mxCell id="wKFJhELgr0NoA7eS5oiP-3" value="Producto" style="whiteSpace=wrap;html=1;align=center;" vertex="1" parent="1">
          <mxGeometry x="325" y="200" width="100" height="40" as="geometry" />
        </mxCell>
        <mxCell id="wKFJhELgr0NoA7eS5oiP-4" value="Proveedor" style="whiteSpace=wrap;html=1;align=center;" vertex="1" parent="1">
          <mxGeometry x="620" y="200" width="100" height="40" as="geometry" />
        </mxCell>
        <mxCell id="wKFJhELgr0NoA7eS5oiP-5" value="Rut" style="ellipse;whiteSpace=wrap;html=1;align=center;fontStyle=4;" vertex="1" parent="1">
          <mxGeometry x="10" y="255" width="100" height="40" as="geometry" />
        </mxCell>
        <mxCell id="wKFJhELgr0NoA7eS5oiP-6" value="Código" style="ellipse;whiteSpace=wrap;html=1;align=center;fontStyle=4;" vertex="1" parent="1">
          <mxGeometry x="325" y="305" width="100" height="40" as="geometry" />
        </mxCell>
        <mxCell id="wKFJhELgr0NoA7eS5oiP-7" value="Rut" style="ellipse;whiteSpace=wrap;html=1;align=center;fontStyle=4;" vertex="1" parent="1">
          <mxGeometry x="620" y="255" width="100" height="40" as="geometry" />
        </mxCell>
        <mxCell id="wKFJhELgr0NoA7eS5oiP-8" value="Nombre" style="ellipse;whiteSpace=wrap;html=1;align=center;" vertex="1" parent="1">
          <mxGeometry x="10" y="305" width="100" height="40" as="geometry" />
        </mxCell>
        <mxCell id="wKFJhELgr0NoA7eS5oiP-9" value="Apellido" style="ellipse;whiteSpace=wrap;html=1;align=center;" vertex="1" parent="1">
          <mxGeometry x="10" y="355" width="100" height="40" as="geometry" />
        </mxCell>
        <mxCell id="wKFJhELgr0NoA7eS5oiP-10" value="Dirección" style="ellipse;whiteSpace=wrap;html=1;align=center;" vertex="1" parent="1">
          <mxGeometry x="10" y="405" width="100" height="40" as="geometry" />
        </mxCell>
        <mxCell id="wKFJhELgr0NoA7eS5oiP-11" value="Fecha de nacimiento" style="ellipse;whiteSpace=wrap;html=1;align=center;" vertex="1" parent="1">
          <mxGeometry x="10" y="455" width="100" height="40" as="geometry" />
        </mxCell>
        <mxCell id="wKFJhELgr0NoA7eS5oiP-17" value="Nombre" style="ellipse;whiteSpace=wrap;html=1;align=center;" vertex="1" parent="1">
          <mxGeometry x="325" y="255" width="100" height="40" as="geometry" />
        </mxCell>
        <mxCell id="wKFJhELgr0NoA7eS5oiP-18" value="Precio Unitario" style="ellipse;whiteSpace=wrap;html=1;align=center;" vertex="1" parent="1">
          <mxGeometry x="325" y="355" width="100" height="40" as="geometry" />
        </mxCell>
        <mxCell id="wKFJhELgr0NoA7eS5oiP-19" value="Nombre" style="ellipse;whiteSpace=wrap;html=1;align=center;" vertex="1" parent="1">
          <mxGeometry x="620" y="305" width="100" height="40" as="geometry" />
        </mxCell>
      </root>
    </mxGraphModel>
  </diagram>
</mxfile>
